<?xml version="1.0" standalone="no"?><!DOCTYPE svg PUBLIC "-//W3C//DTD SVG 1.1//EN" "http://www.w3.org/Graphics/SVG/1.1/DTD/svg11.dtd"><svg t="1743003979558" class="icon" viewBox="0 0 1024 1024" version="1.1" xmlns="http://www.w3.org/2000/svg" p-id="6801" xmlns:xlink="http://www.w3.org/1999/xlink" width="128" height="128"><path d="M512 533.3c129.6 0 234.7-105.1 234.7-234.7S641.6 64 512 64 277.3 169.1 277.3 298.7c0 90 50.7 168 125 207.4C231.9 553.9 106.7 710.2 106.7 896c0 15.5 1.1 30.7 2.9 45.7 1.3 10.5 10.5 18.3 21.1 18.3 12.6 0 22.6-10.8 21.1-23.3-1.6-13.4-2.5-26.9-2.5-40.7 0-200 162.7-362.7 362.7-362.7zM320 298.7c0-105.9 86.1-192 192-192s192 86.1 192 192-86.1 192-192 192-192-86.2-192-192z m211.4 314.8c-3.8-8.3-11.6-12.5-19.4-12.5-7.8 0-15.6 4.2-19.4 12.5l-85.3 188.2c-3.7 8.1-1.9 17.6 4.3 23.9l85.3 85.5c4.2 4.2 9.6 6.3 15.1 6.3s10.9-2.1 15.1-6.3l85.3-85.5c6.3-6.3 8-15.8 4.3-23.9l-85.3-188.2zM512 865.8l-59.8-59.9L512 674l59.8 131.9-59.8 59.9z m194.3-325.1c-8.2-4.5-18.5-2.8-25.2 3.9-10 10-7.6 26.8 4.8 33.6C798.2 639.8 874.7 759 874.7 896c0 13.8-0.9 27.3-2.5 40.7-1.5 12.5 8.6 23.3 21.1 23.3 10.6 0 19.8-7.8 21.1-18.3 1.8-15 2.9-30.2 2.9-45.7 0-153.4-85.4-286.5-211-355.3z" fill="#000000" p-id="6802"></path></svg>