<?xml version="1.0" standalone="no"?><!DOCTYPE svg PUBLIC "-//W3C//DTD SVG 1.1//EN" "http://www.w3.org/Graphics/SVG/1.1/DTD/svg11.dtd"><svg t="1732373833194" class="icon" viewBox="0 0 1024 1024" version="1.1" xmlns="http://www.w3.org/2000/svg" p-id="5269" xmlns:xlink="http://www.w3.org/1999/xlink" width="128" height="128"><path d="M870.4 64a64 64 0 0 1 64 64v768a64 64 0 0 1-64 64h-512a64 64 0 0 1-64-64V128a64 64 0 0 1 64-64h512zM153.6 64a64 64 0 0 1 64 64v768a64 64 0 0 1-128 0V128a64 64 0 0 1 64-64z m467.2 576h-192a32 32 0 1 0 0 64h192a32 32 0 1 0 0-64z m179.2-192H428.8a32 32 0 0 0-5.76 63.488L428.8 512h371.2a32 32 0 1 0 0-64z m0-192H428.8a32 32 0 0 0-5.76 63.488L428.8 320h371.2a32 32 0 1 0 0-64z" p-id="5270"></path></svg>