<?xml version="1.0" standalone="no"?><!DOCTYPE svg PUBLIC "-//W3C//DTD SVG 1.1//EN" "http://www.w3.org/Graphics/SVG/1.1/DTD/svg11.dtd"><svg t="1728051915485" class="icon" viewBox="0 0 1024 1024" version="1.1" xmlns="http://www.w3.org/2000/svg" p-id="2466" xmlns:xlink="http://www.w3.org/1999/xlink" width="52" height="52"><path d="M421 200h182v52H421z" p-id="2467"></path><path d="M816.2 200h-68.1v51.8h70.4c20.8 0 38.1 16.5 38.1 36.3v120.6H165.7V288.1c0-19.8 17.3-36.3 38.1-36.3h71V200h-67.5c-52.5 0-95.2 41.3-95.2 91.4v529.2c0 50.1 41.6 91.4 94.1 91.4h610.7c52.5 0 95.2-41.3 95.2-91.4V291.4c-0.7-50.7-43.4-91.4-95.9-91.4zM309.4 807.9c-30 0-54.8-23.7-54.8-52.3 0-28.6 24.2-52.3 54.8-52.3 30 0 54.8 23.7 54.8 52.3 0 28.6-24.2 52.3-54.8 52.3z m1.1-191.6c-30 0-54.8-23.7-54.8-52.3 0-28.6 24.2-52.3 54.8-52.3 30 0 54.8 23.7 54.8 52.3 0.1 29.2-24.7 52.3-54.8 52.3z m200.3 191.6c-30 0-54.8-23.7-54.8-52.3 0-28.6 24.2-52.3 54.8-52.3 30 0 54.8 23.7 54.8 52.3 0.1 28.6-24.7 52.3-54.8 52.3z m0-191.6c-30 0-54.8-23.7-54.8-52.3 0-28.6 24.2-52.3 54.8-52.3 30 0 54.8 23.7 54.8 52.3 0.1 29.2-24.7 52.3-54.8 52.3z m200.3 0c-30 0-54.8-23.7-54.8-52.3 0-28.6 24.2-52.3 54.8-52.3 30 0 54.8 23.7 54.8 52.3-0.5 29.2-24.8 52.3-54.8 52.3z m0 0" p-id="2468"></path><path d="M640 112h72v224h-72zM312 112h72v224h-72z" p-id="2469"></path></svg>