<?xml version="1.0" standalone="no"?><!DOCTYPE svg PUBLIC "-//W3C//DTD SVG 1.1//EN" "http://www.w3.org/Graphics/SVG/1.1/DTD/svg11.dtd"><svg t="1728438139161" class="icon" viewBox="0 0 1024 1024" version="1.1" xmlns="http://www.w3.org/2000/svg" p-id="2471" xmlns:xlink="http://www.w3.org/1999/xlink" width="52" height="52"><path d="M913.3 752.5l-88.9-160c-5.6-10.2-16.4-16.5-28-16.5H620.8c-11.6 0-22.3 6.3-28 16.5l-88.9 160c-5.4 9.7-5.4 21.4 0 31.1l88.9 160c5.6 10.2 16.4 16.5 28 16.5h175.7c11.6 0 22.3-6.3 28-16.5l88.9-160c5.3-9.7 5.3-21.5-0.1-31.1zM793.9 917.3H623.3L537.9 768l85.3-149.3h170.7L879.3 768l-85.4 149.3z" fill="#333333" p-id="2472"></path><path d="M708.6 682.7c-47.1 0-85.3 38.2-85.3 85.3 0 47.1 38.2 85.3 85.3 85.3s85.3-38.2 85.3-85.3c0-47.1-38.2-85.3-85.3-85.3z m0 128c-23.6 0-42.7-19.1-42.7-42.7s19.1-42.7 42.7-42.7 42.7 19.1 42.7 42.7-19.1 42.7-42.7 42.7zM512 533.3c129.6 0 234.7-105.1 234.7-234.7S641.6 64 512 64 277.3 169.1 277.3 298.7c0 90 50.7 168 125 207.4C231.9 553.9 106.7 710.2 106.7 896c0 15.5 1.1 30.7 2.9 45.7 1.3 10.5 10.5 18.3 21.1 18.3 12.6 0 22.6-10.8 21.1-23.3-1.6-13.4-2.5-26.9-2.5-40.7 0-200 162.7-362.7 362.7-362.7z m0-426.6c105.9 0 192 86.1 192 192v0.6c-56.1-7.3-98.5-76.2-99-77-3.6-6-9.6-9.8-16.4-10.2-6.8-0.6-13.4 1.9-17.9 7-41.8 47.8-87 72.7-134.4 74.5-47.9 1.9-88.3-20.1-111.6-36.6 19.1-85.9 95.8-150.3 187.3-150.3z m-191.7 198c27.5 16.2 66.1 31.7 110.6 31.7 2.1 0 4.3 0 6.4-0.2 52.5-1.7 102-25 147-69.3 21.1 26.6 62 68.6 114.6 74.9-19.6 85.2-95.9 148.9-187 148.9-103.7 0-188.4-82.9-191.6-186z" fill="#333333" p-id="2473"></path></svg>