<?xml version="1.0" standalone="no"?><!DOCTYPE svg PUBLIC "-//W3C//DTD SVG 1.1//EN" "http://www.w3.org/Graphics/SVG/1.1/DTD/svg11.dtd"><svg t="1728121526178" class="icon" viewBox="0 0 1024 1024" version="1.1" xmlns="http://www.w3.org/2000/svg" p-id="3289" xmlns:xlink="http://www.w3.org/1999/xlink" width="52" height="52"><path d="M804.571429 870.4c29.257143 0 73.142857-43.885714 73.142857-73.142857s-43.885714-65.828571-80.457143-65.828572c-29.257143 0-73.142857 29.257143-73.142857 65.828572 7.314286 29.257143 43.885714 73.142857 80.457143 73.142857z m146.285714-51.2l65.828571 36.571429c7.314286 0 7.314286 7.314286 0 14.628571l-43.885714 80.457143c0 7.314286-7.314286 7.314286-14.628571 7.314286l-58.514286-21.942858-43.885714 21.942858-7.314286 58.514285c0 7.314286-7.314286 7.314286-14.628572 7.314286h-95.085714c-7.314286 0-14.628571-7.314286-14.628571-7.314286l-7.314286-65.828571-43.885714-21.942857-58.514286 21.942857c-7.314286 0-14.628571 0-14.628571-7.314286l-29.257143-80.457143v-14.628571l87.771428-29.257143v-21.942857-21.942857L577.828571 731.428571c-7.314286 0-7.314286-7.314286 0-14.628571l29.257143-80.457143c0-7.314286 7.314286-7.314286 14.628572-7.314286l58.514285 29.257143 43.885715-21.942857 7.314285-43.885714c-7.314286-7.314286 0-7.314286 7.314286-7.314286h95.085714c7.314286 0 14.628571 7.314286 14.628572 7.314286l7.314286 43.885714 43.885714 21.942857 58.514286-21.942857c7.314286 0 14.628571 0 14.628571 7.314286l51.2 73.142857v14.628571l-73.142857 36.571429v51.2zM234.057143 365.714286c-7.314286 0-14.628571 7.314286-14.628572 21.942857v475.428571c0 7.314286 7.314286 14.628571 14.628572 14.628572h36.571428c7.314286 0 21.942857-7.314286 21.942858-21.942857V387.657143c0-14.628571-14.628571-21.942857-21.942858-21.942857h-36.571428zM512 950.857143H73.142857c-14.628571 0-58.514286-58.514286-58.514286-73.142857 0-14.628571 36.571429 0 58.514286 0h73.142857V365.714286H73.142857c-7.314286 0-73.142857-36.571429-73.142857-51.2 0-7.314286 0-14.628571 7.314286-14.628572l453.485714-292.571428c14.628571-7.314286 43.885714-7.314286 65.828571 0l453.485715 292.571428c7.314286 7.314286 7.314286 14.628571 7.314285 21.942857 0 7.314286-7.314286 36.571429-14.628571 36.571429H877.714286V512c-29.257143-7.314286-43.885714-14.628571-73.142857-14.628571V380.342857c0-7.314286-7.314286-14.628571-21.942858-14.628571h-36.571428c-7.314286 0-14.628571 7.314286-14.628572 14.628571V512c-65.828571 0-65.828571 0-146.285714 7.314286V387.657143c0-14.628571-7.314286-21.942857-14.628571-21.942857H387.657143c-14.628571 0-21.942857 7.314286-21.942857 14.628571v475.428572c0 14.628571 7.314286 21.942857 21.942857 21.942857h117.028571c0 21.942857 0 51.2 7.314286 73.142857z" fill="#443F3F" p-id="3290"></path></svg>