<?xml version="1.0" standalone="no"?><!DOCTYPE svg PUBLIC "-//W3C//DTD SVG 1.1//EN" "http://www.w3.org/Graphics/SVG/1.1/DTD/svg11.dtd"><svg t="1737861860606" class="icon" viewBox="0 0 1024 1024" version="1.1" xmlns="http://www.w3.org/2000/svg" p-id="5408" xmlns:xlink="http://www.w3.org/1999/xlink" width="200" height="200"><path d="M587.46372536 520.87072892m-26.38630965 0a26.38630964 26.38630964 0 1 0 52.77261931 0 26.38630964 26.38630964 0 1 0-52.77261931 0Z" p-id="5409"></path><path d="M827.16 160.43h-50.68a10 10 0 0 0-10 10v40a10 10 0 0 0 10 10h49.85a40 40 0 0 1 40 40v536.44a40 40 0 0 1-40 40h-630a40 40 0 0 1-40-40V260.43a40 40 0 0 1 40-40h48.11a10 10 0 0 0 10-10v-40a10 10 0 0 0-10-10h-48.11a100 100 0 0 0-100 100v536.44a100 100 0 0 0 100 100h630a100 100 0 0 0 100-100V260.43c0-55.23-44.77-100-99.17-100z m-199.5 0H392.45a10 10 0 0 0-10 10v40a10 10 0 0 0 10 10h235.21a10 10 0 0 0 10-10v-40a10 10 0 0 0-10-10z" p-id="5410"></path><path d="M286.39 126.32m10 0l44.01 0q10 0 10 10l0 108.21q0 10-10 10l-44.01 0q-10 0-10-10l0-108.21q0-10 10-10Z" p-id="5411"></path><path d="M670.46 126.32m20 0l24.01 0q20 0 20 20l0 88.21q0 20-20 20l-24.01 0q-20 0-20-20l0-88.21q0-20 20-20Z" p-id="5412"></path><path d="M439.94 672.87A89.59 89.59 0 0 1 377.58 648l-69.32-67.26a31.49 31.49 0 0 1 0-45.5 33.9 33.9 0 0 1 46.91 0l69.23 67.16a22.62 22.62 0 0 0 31.18-0.1l244.11-236.89a33.9 33.9 0 0 1 46.91 0 31.5 31.5 0 0 1 0 45.5L502.5 647.79a89.61 89.61 0 0 1-62.56 25.08z" p-id="5413"></path></svg>