<?xml version="1.0" standalone="no"?><!DOCTYPE svg PUBLIC "-//W3C//DTD SVG 1.1//EN" "http://www.w3.org/Graphics/SVG/1.1/DTD/svg11.dtd"><svg t="1728872759529" class="icon" viewBox="0 0 1024 1024" version="1.1" xmlns="http://www.w3.org/2000/svg" p-id="5405" xmlns:xlink="http://www.w3.org/1999/xlink" width="52" height="52"><path d="M870.4 153.6h-84.48v95.6416c0 45.8496-37.5296 84.48-83.3792 83.5584A81.92 81.92 0 0 1 622.08 250.88V153.6h-220.16v95.6416c0 45.8496-37.5296 84.48-83.3792 83.5584A81.92 81.92 0 0 1 238.08 250.88V153.6H153.6a77.0304 77.0304 0 0 0-76.8 76.8v640a77.0304 77.0304 0 0 0 76.8 76.8h716.8a77.0304 77.0304 0 0 0 76.8-76.8V230.4a77.0304 77.0304 0 0 0-76.8-76.8z m0 640a77.0304 77.0304 0 0 1-76.8 76.8H230.4a77.0304 77.0304 0 0 1-76.8-76.8V460.8a77.0304 77.0304 0 0 1 76.8-76.8h563.2a77.0304 77.0304 0 0 1 76.8 76.8z" p-id="5406"></path><path d="M324.9152 301.8496c26.496-2.56 46.2848-25.6 46.2848-52.2752V89.6a51.3536 51.3536 0 0 0-56.1152-50.9696c-26.496 2.56-46.2848 25.6-46.2848 52.2752V250.88a51.3536 51.3536 0 0 0 56.1152 50.9696zM708.9152 301.8496c26.496-2.56 46.2848-25.6 46.2848-52.2752V89.6a51.3536 51.3536 0 0 0-56.1152-50.9696c-26.496 2.56-46.2848 25.6-46.2848 52.2752V250.88a51.3536 51.3536 0 0 0 56.1152 50.9696z" p-id="5407"></path><path d="M243.2 473.6m25.6 0l179.2 0q25.6 0 25.6 25.6l0 76.8q0 25.6-25.6 25.6l-179.2 0q-25.6 0-25.6-25.6l0-76.8q0-25.6 25.6-25.6Z" p-id="5408"></path><path d="M550.4 473.6m25.6 0l179.2 0q25.6 0 25.6 25.6l0 76.8q0 25.6-25.6 25.6l-179.2 0q-25.6 0-25.6-25.6l0-76.8q0-25.6 25.6-25.6Z" p-id="5409"></path><path d="M243.2 652.8m25.6 0l179.2 0q25.6 0 25.6 25.6l0 76.8q0 25.6-25.6 25.6l-179.2 0q-25.6 0-25.6-25.6l0-76.8q0-25.6 25.6-25.6Z" p-id="5410"></path><path d="M550.4 652.8m25.6 0l179.2 0q25.6 0 25.6 25.6l0 76.8q0 25.6-25.6 25.6l-179.2 0q-25.6 0-25.6-25.6l0-76.8q0-25.6 25.6-25.6Z" p-id="5411"></path></svg>