<?xml version="1.0" standalone="no"?><!DOCTYPE svg PUBLIC "-//W3C//DTD SVG 1.1//EN" "http://www.w3.org/Graphics/SVG/1.1/DTD/svg11.dtd"><svg t="1737610783968" class="icon" viewBox="0 0 1024 1024" version="1.1" xmlns="http://www.w3.org/2000/svg" p-id="5556" xmlns:xlink="http://www.w3.org/1999/xlink" width="200" height="200"><path d="M833.57193 90.291649h-610.807018c-19.761404 0-35.929825 16.168421-35.929824 35.929825v574.877193h-71.859649c-19.761404 0-35.929825 16.168421-35.929825 35.929824v71.859649c0 59.284211 50.301754 107.789474 113.178947 107.789474h492.238597c62.877193 0 113.178947-53.894737 113.178947-120.364912v-490.442106h107.789474c19.761404 0 35.929825-16.168421 35.929825-35.929824v-71.859649c-1.796491-59.284211-48.505263-107.789474-107.789474-107.789474z m-181.445614 431.157895h-323.368421v-71.859649h323.368421v71.859649z m0-143.719298h-323.368421v-71.85965h323.368421v71.85965z" p-id="5557"></path></svg>