<?xml version="1.0" standalone="no"?><!DOCTYPE svg PUBLIC "-//W3C//DTD SVG 1.1//EN" "http://www.w3.org/Graphics/SVG/1.1/DTD/svg11.dtd"><svg t="1728564506223" class="icon" viewBox="0 0 1024 1024" version="1.1" xmlns="http://www.w3.org/2000/svg" p-id="4329" xmlns:xlink="http://www.w3.org/1999/xlink" width="52" height="52"><path d="M300.8 404.7H649v89H300.8v-89z m0-148.3H649v89H300.8v-89z m0 296.6H500v89H300.8v-89z m618.7 141.8c-30.3-50.6-29.8-51.5-29.8-51.5S785 672.7 765.5 572.2h-60.7s-16.7 100.6-123.7 70.9c-30.9 51.6-32 53.2-32 53.2s83.7 58.5 0 138l32.6 53.5s92.4-39.9 122.7 69.1h61.4S785 856.7 889 886.3c29.6-50.6 30.1-51.1 30.1-51.1s-78.6-67.7 0.4-140.4zM733.7 835.3c-28.7 0-54.5-17.3-65.5-43.7-11-26.5-4.9-57 15.4-77.2 20.3-20.3 50.8-26.3 77.2-15.4 26.5 11 43.8 36.8 43.8 65.5 0 39.1-31.8 70.8-70.9 70.8z m-496.2 33.1c-32.8 0-59.4-26.6-59.4-59.4V215c0-32.8 26.6-59.4 59.4-59.4h474.8c32.8 0 59.4 26.6 59.4 59.4v315.5h73.8V141.2c0-19.7-7.8-38.5-21.7-52.4a74.013 74.013 0 0 0-52.4-21.7H178.6c-40.9 0-74.1 33.2-74.1 74.2v741.5c0 19.6 7.8 38.5 21.7 52.4 13.9 13.9 32.7 21.7 52.4 21.7h340.8v-88.5H237.5z m0 0" p-id="4330"></path></svg>