<?xml version="1.0" standalone="no"?><!DOCTYPE svg PUBLIC "-//W3C//DTD SVG 1.1//EN" "http://www.w3.org/Graphics/SVG/1.1/DTD/svg11.dtd"><svg t="1737610836948" class="icon" viewBox="0 0 1024 1024" version="1.1" xmlns="http://www.w3.org/2000/svg" p-id="9473" xmlns:xlink="http://www.w3.org/1999/xlink" width="200" height="200"><path d="M295.253333 112.426667H151.893333A45.44 45.44 0 0 0 106.666667 158.506667v707.84a45.226667 45.226667 0 0 0 45.226666 45.226666h143.36A45.226667 45.226667 0 0 0 341.333333 866.346667V158.506667a45.013333 45.013333 0 0 0-46.08-46.08z m-71.68 748.16a62.293333 62.293333 0 1 1 61.866667-62.72 61.866667 61.866667 0 0 1-61.866667 62.72z m64-536.32H158.506667a15.786667 15.786667 0 0 1-15.573334-15.786667 15.146667 15.146667 0 0 1 15.573334-15.573333h129.493333a15.573333 15.573333 0 0 1 15.573333 15.573333 15.146667 15.146667 0 0 1-14.933333 15.786667z m0-76.8H158.506667a15.573333 15.573333 0 0 1-15.573334-15.573334 15.146667 15.146667 0 0 1 15.573334-15.573333h129.493333a15.573333 15.573333 0 0 1 15.573333 15.573333 14.933333 14.933333 0 0 1-14.933333 15.573334z m296.106667-135.04h-143.36a45.013333 45.013333 0 0 0-45.226667 45.226666v707.84a45.013333 45.013333 0 0 0 45.226667 45.226667h143.36a45.013333 45.013333 0 0 0 45.226667-45.226667V158.506667a45.226667 45.226667 0 0 0-45.226667-46.08zM512 860.586667a62.293333 62.293333 0 1 1 61.866667-62.72 62.08 62.08 0 0 1-61.866667 62.72z m65.066667-536.32H448a15.573333 15.573333 0 0 1-15.573333-15.786667 14.933333 14.933333 0 0 1 15.573333-15.573333h128a15.786667 15.786667 0 0 1 15.786667 15.573333 15.146667 15.146667 0 0 1-14.72 15.786667z m0-76.8H448a15.573333 15.573333 0 0 1-15.573333-15.573334 14.933333 14.933333 0 0 1 15.573333-15.573333h128a15.786667 15.786667 0 0 1 15.786667 15.573333 14.933333 14.933333 0 0 1-14.72 15.573334z m295.04-135.04h-143.36A45.226667 45.226667 0 0 0 682.666667 157.653333v707.84a45.226667 45.226667 0 0 0 45.44 45.226667h143.36A45.013333 45.013333 0 0 0 917.333333 865.493333V158.506667a45.44 45.44 0 0 0-45.226666-46.08z m-71.68 748.16a62.293333 62.293333 0 1 1 61.653333-62.72 61.866667 61.866667 0 0 1-61.653333 62.72z m64-536.32h-130.133334a15.786667 15.786667 0 0 1-15.786666-15.786667 15.146667 15.146667 0 0 1 15.786666-15.573333h129.28a15.573333 15.573333 0 0 1 15.573334 15.573333 14.933333 14.933333 0 0 1-13.653334 15.786667z m0-76.8h-130.133334a15.786667 15.786667 0 0 1-15.786666-15.573334 15.146667 15.146667 0 0 1 15.786666-15.573333h129.28a15.573333 15.573333 0 0 1 15.573334 15.573333 14.933333 14.933333 0 0 1-13.653334 15.573334z" p-id="9474"></path></svg>