<?xml version="1.0" standalone="no"?><!DOCTYPE svg PUBLIC "-//W3C//DTD SVG 1.1//EN" "http://www.w3.org/Graphics/SVG/1.1/DTD/svg11.dtd"><svg t="1737610680187" class="icon" viewBox="0 0 1024 1024" version="1.1" xmlns="http://www.w3.org/2000/svg" p-id="4205" xmlns:xlink="http://www.w3.org/1999/xlink" width="200" height="200"><path d="M789.68 116.5h-579.1c-30.83 0-58.69 12.49-78.91 32.72s-32.72 48.09-32.72 78.91c0 54.92 39.73 100.67 91.95 109.92-22.92 4.05-43.5 15.19-59.32 31.01-20.13 20.13-32.63 48.09-32.63 78.91 0 55.01 39.73 100.67 92.04 109.92-52.04 9.44-91.59 55.01-91.59 109.84 0 61.66 49.97 111.63 111.64 111.63h322.4c-4.58-16.99-7.1-34.78-7.1-53.3 0-110.28 89.43-199.71 199.72-199.71 6.29 0 12.58 0.27 18.78 0.9-54.2-54.11-40.35-152.89 37.84-184.89l6.11-2.51c0.81-0.36 1.17-1.08 1.08-1.8v-0.18c-0.09-0.54-0.45-1.17-1.08-1.43-93.11-37.21-98.33-167-8.54-211.49l10.25-5.12c1.61-0.82 1.07-3.33-0.82-3.33zM391.42 336.34v137.9c0 13.13-16.04 19.52-25.07 9.99l-48.72-51.45-48.72 51.45c-9.03 9.53-25.07 3.14-25.07-9.99V256.33c0-24.81 20.11-44.92 44.92-44.92h57.74c24.81 0 44.92 20.11 44.92 44.92v80.01z" p-id="4206"></path><path d="M920.72 711.69c-0.08-0.7-0.15-1.28-0.27-1.62v-0.31l-0.15-0.85c-2.74-13.37-11.59-21.98-22.6-21.98h-1.82c-18.78 0-34-15.3-34-34 0-4.33 2.01-10.47 2.86-12.63 5.33-12.44-0.35-26.62-13.52-33.84l-41.45-23.45-0.77-0.27c-3.09-1-6.68-2.2-10.7-2.2-7.49 0-15.92 3.48-21.13 8.69-6.53 6.45-19.78 16.07-27.66 16.07-7.84 0-21.13-9.58-27.66-16.07-5.56-5.49-13.25-8.69-21.13-8.69-4.13 0-7.61 1.16-10.7 2.2l-0.69 0.27-43.46 23.53-0.27 0.15c-10.55 6.61-14.83 21.75-9.46 33.76l0.15 0.31c0.85 1.89 3.48 8.31 3.48 13.91 0 18.77-15.3 34-34 34h-1.81c-11.51 0-20.13 8.5-22.6 22.14l-0.15 0.77v0.27c0 0.38-0.15 0.93-0.27 1.62-0.97 5.83-3.28 19.59-3.28 30.83 0 11.24 2.28 24.99 3.28 30.83 0.08 0.69 0.15 1.28 0.27 1.62v0.31l0.15 0.85c2.74 13.37 11.59 21.98 22.6 21.98h0.93c18.78 0 34 15.3 34 34 0 4.33-2.01 10.47-2.86 12.63-5.14 11.7-0.27 26.73 11.09 34.31l0.31 0.15 40.95 22.79 0.77 0.27c3.09 1 6.61 2.2 10.62 2.2 8.58 0 16.3-3.28 21.13-8.69 0.46-0.35 0.93-0.81 1.47-1.27 4.95-4.33 18.24-15.76 27.01-15.76 6.53 0 17.46 6.84 28.47 17.85 5.56 5.49 13.25 8.69 21.13 8.69 5.33 0 9.27-1.47 13.75-3.67l0.15-0.08 41.99-23.22 0.15-0.15c10.55-6.61 14.84-21.75 9.47-33.77l-0.08-0.15-0.08-0.15c-0.08-0.04-3.36-6.88-2.74-13.02l0.08-0.39v-0.39c0-18.77 15.3-34 34-34h1.93c11.51 0 20.13-8.5 22.6-22.14l0.15-0.77v-0.27c0.08-0.31 0.15-0.77 0.27-1.39 1.01-5.68 3.32-18.93 3.32-31.06 0.07-11.2-2.21-24.92-3.22-30.75z m-169.98 85.92c-29.71 0-53.78-24.07-53.78-53.78s24.07-53.78 53.78-53.78 53.78 24.07 53.78 53.78-24.07 53.78-53.78 53.78z" p-id="4207"></path></svg>